<svg viewBox="0 0 330 200" xmlns="http://www.w3.org/2000/svg"><g><g><g><g><g><line x1="61.91500186920166" y1="176.89999961853027" x2="56.91500186920166" y2="176.89999961853027" style="visibility: inherit;" fill="rgb(0, 0, 0)" stroke="rgb(204, 204, 204)" stroke-width="1px"></line><line x1="61.91500186920166" y1="159.20999965667724" x2="56.91500186920166" y2="159.20999965667724" style="visibility: inherit;" fill="rgb(0, 0, 0)" stroke="rgb(204, 204, 204)" stroke-width="1px"></line><line x1="61.91500186920166" y1="141.51999969482424" x2="56.91500186920166" y2="141.51999969482424" style="visibility: inherit;" fill="rgb(0, 0, 0)" stroke="rgb(204, 204, 204)" stroke-width="1px"></line><line x1="61.91500186920166" y1="123.82999973297119" x2="56.91500186920166" y2="123.82999973297119" style="visibility: inherit;" fill="rgb(0, 0, 0)" stroke="rgb(204, 204, 204)" stroke-width="1px"></line><line x1="61.91500186920166" y1="106.13999977111818" x2="56.91500186920166" y2="106.13999977111818" style="visibility: inherit;" fill="rgb(0, 0, 0)" stroke="rgb(204, 204, 204)" stroke-width="1px"></line><line x1="61.91500186920166" y1="88.44999980926512" x2="56.91500186920166" y2="88.44999980926512" style="visibility: inherit;" fill="rgb(0, 0, 0)" stroke="rgb(204, 204, 204)" stroke-width="1px"></line><line x1="61.91500186920166" y1="70.75999984741212" x2="56.91500186920166" y2="70.75999984741212" style="visibility: inherit;" fill="rgb(0, 0, 0)" stroke="rgb(204, 204, 204)" stroke-width="1px"></line><line x1="61.91500186920166" y1="53.06999988555909" x2="56.91500186920166" y2="53.06999988555909" style="visibility: inherit;" fill="rgb(0, 0, 0)" stroke="rgb(204, 204, 204)" stroke-width="1px"></line><line x1="61.91500186920166" y1="35.379999923706045" x2="56.91500186920166" y2="35.379999923706045" style="visibility: inherit;" fill="rgb(0, 0, 0)" stroke="rgb(204, 204, 204)" stroke-width="1px"></line><line x1="61.91500186920166" y1="17.689999961853022" x2="56.91500186920166" y2="17.689999961853022" style="visibility: inherit;" fill="rgb(0, 0, 0)" stroke="rgb(204, 204, 204)" stroke-width="1px"></line><line x1="61.91500186920166" y1="0" x2="56.91500186920166" y2="0" style="visibility: inherit;" fill="rgb(0, 0, 0)" stroke="rgb(204, 204, 204)" stroke-width="1px"></line></g><g transform="translate(51.91500186920166, 0)"><text style="text-anchor: end; visibility: hidden; font-family: Roboto, sans-serif; font-size: 12px; font-weight: 200;" x="0" y="176.89999961853027" dx="0em" dy="0.3em" fill="rgb(255, 255, 255)" stroke="none" stroke-width="1px">0.01</text><text style="text-anchor: end; visibility: inherit; font-family: Roboto, sans-serif; font-size: 12px; font-weight: 200;" x="0" y="159.20999965667724" dx="0em" dy="0.3em" fill="rgb(255, 255, 255)" stroke="none" stroke-width="1px">0.015</text><text style="text-anchor: end; visibility: hidden; font-family: Roboto, sans-serif; font-size: 12px; font-weight: 200;" x="0" y="141.51999969482424" dx="0em" dy="0.3em" fill="rgb(255, 255, 255)" stroke="none" stroke-width="1px">0.02</text><text style="text-anchor: end; visibility: inherit; font-family: Roboto, sans-serif; font-size: 12px; font-weight: 200;" x="0" y="123.82999973297119" dx="0em" dy="0.3em" fill="rgb(255, 255, 255)" stroke="none" stroke-width="1px">0.025</text><text style="text-anchor: end; visibility: hidden; font-family: Roboto, sans-serif; font-size: 12px; font-weight: 200;" x="0" y="106.13999977111818" dx="0em" dy="0.3em" fill="rgb(255, 255, 255)" stroke="none" stroke-width="1px">0.03</text><text style="text-anchor: end; visibility: inherit; font-family: Roboto, sans-serif; font-size: 12px; font-weight: 200;" x="0" y="88.44999980926512" dx="0em" dy="0.3em" fill="rgb(255, 255, 255)" stroke="none" stroke-width="1px">0.035</text><text style="text-anchor: end; visibility: hidden; font-family: Roboto, sans-serif; font-size: 12px; font-weight: 200;" x="0" y="70.75999984741212" dx="0em" dy="0.3em" fill="rgb(255, 255, 255)" stroke="none" stroke-width="1px">0.04</text><text style="text-anchor: end; visibility: inherit; font-family: Roboto, sans-serif; font-size: 12px; font-weight: 200;" x="0" y="53.06999988555909" dx="0em" dy="0.3em" fill="rgb(255, 255, 255)" stroke="none" stroke-width="1px">0.045</text><text style="text-anchor: end; visibility: hidden; font-family: Roboto, sans-serif; font-size: 12px; font-weight: 200;" x="0" y="35.379999923706045" dx="0em" dy="0.3em" fill="rgb(255, 255, 255)" stroke="none" stroke-width="1px">0.05</text><text style="text-anchor: end; visibility: inherit; font-family: Roboto, sans-serif; font-size: 12px; font-weight: 200;" x="0" y="17.689999961853022" dx="0em" dy="0.3em" fill="rgb(255, 255, 255)" stroke="none" stroke-width="1px">0.055</text><text style="text-anchor: end; visibility: hidden; font-family: Roboto, sans-serif; font-size: 12px; font-weight: 200;" x="0" y="0" dx="0em" dy="0.3em" fill="rgb(255, 255, 255)" stroke="none" stroke-width="1px">0.06</text></g><line x1="61.91500186920166" y1="0" x2="61.91500186920166" y2="176.89999961853027" fill="rgb(0, 0, 0)" stroke="rgb(204, 204, 204)" stroke-width="1px"></line></g></g><g transform="translate(61, 0)" clip-path="url(#clip_0)"><clipPath id="clip_0"><rect width="268" height="176"></rect></clipPath><g><g><g><line x1="0" y1="0" x2="0" y2="176.89999961853027" fill="rgb(0, 0, 0)" stroke="rgb(189, 189, 189)" stroke-width="1px" opacity="0.25"></line><line x1="22.34041651089986" y1="0" x2="22.34041651089986" y2="176.89999961853027" fill="rgb(0, 0, 0)" stroke="rgb(189, 189, 189)" stroke-width="1px" opacity="0.25"></line><line x1="44.68083302179972" y1="0" x2="44.68083302179972" y2="176.89999961853027" fill="rgb(0, 0, 0)" stroke="rgb(189, 189, 189)" stroke-width="1px" opacity="0.25"></line><line x1="67.02124953269958" y1="0" x2="67.02124953269958" y2="176.89999961853027" fill="rgb(0, 0, 0)" stroke="rgb(189, 189, 189)" stroke-width="1px" opacity="0.25"></line><line x1="89.36166604359944" y1="0" x2="89.36166604359944" y2="176.89999961853027" fill="rgb(0, 0, 0)" stroke="rgb(189, 189, 189)" stroke-width="1px" opacity="0.25"></line><line x1="111.70208255449931" y1="0" x2="111.70208255449931" y2="176.89999961853027" fill="rgb(0, 0, 0)" stroke="rgb(189, 189, 189)" stroke-width="1px" opacity="0.25"></line><line x1="134.04249906539917" y1="0" x2="134.04249906539917" y2="176.89999961853027" fill="rgb(0, 0, 0)" stroke="rgb(189, 189, 189)" stroke-width="1px" opacity="0.25"></line><line x1="156.38291557629904" y1="0" x2="156.38291557629904" y2="176.89999961853027" fill="rgb(0, 0, 0)" stroke="rgb(189, 189, 189)" stroke-width="1px" opacity="0.25"></line><line x1="178.72333208719888" y1="0" x2="178.72333208719888" y2="176.89999961853027" fill="rgb(0, 0, 0)" stroke="rgb(189, 189, 189)" stroke-width="1px" opacity="0.25"></line><line x1="201.06374859809875" y1="0" x2="201.06374859809875" y2="176.89999961853027" fill="rgb(0, 0, 0)" stroke="rgb(189, 189, 189)" stroke-width="1px" opacity="0.25"></line><line x1="223.40416510899863" y1="0" x2="223.40416510899863" y2="176.89999961853027" fill="rgb(0, 0, 0)" stroke="rgb(189, 189, 189)" stroke-width="1px" opacity="0.25"></line><line x1="245.74458161989847" y1="0" x2="245.74458161989847" y2="176.89999961853027" fill="rgb(0, 0, 0)" stroke="rgb(189, 189, 189)" stroke-width="1px" opacity="0.25"></line><line x1="268.08499813079834" y1="0" x2="268.08499813079834" y2="176.89999961853027" fill="rgb(0, 0, 0)" stroke="rgb(189, 189, 189)" stroke-width="1px" opacity="0.25"></line></g><g><line x1="0" y1="176.89999961853027" x2="268.08499813079834" y2="176.89999961853027" fill="rgb(0, 0, 0)" stroke="rgb(189, 189, 189)" stroke-width="1px" opacity="0.25"></line><line x1="0" y1="159.20999965667724" x2="268.08499813079834" y2="159.20999965667724" fill="rgb(0, 0, 0)" stroke="rgb(189, 189, 189)" stroke-width="1px" opacity="0.25"></line><line x1="0" y1="141.51999969482424" x2="268.08499813079834" y2="141.51999969482424" fill="rgb(0, 0, 0)" stroke="rgb(189, 189, 189)" stroke-width="1px" opacity="0.25"></line><line x1="0" y1="123.82999973297119" x2="268.08499813079834" y2="123.82999973297119" fill="rgb(0, 0, 0)" stroke="rgb(189, 189, 189)" stroke-width="1px" opacity="0.25"></line><line x1="0" y1="106.13999977111818" x2="268.08499813079834" y2="106.13999977111818" fill="rgb(0, 0, 0)" stroke="rgb(189, 189, 189)" stroke-width="1px" opacity="0.25"></line><line x1="0" y1="88.44999980926512" x2="268.08499813079834" y2="88.44999980926512" fill="rgb(0, 0, 0)" stroke="rgb(189, 189, 189)" stroke-width="1px" opacity="0.25"></line><line x1="0" y1="70.75999984741212" x2="268.08499813079834" y2="70.75999984741212" fill="rgb(0, 0, 0)" stroke="rgb(189, 189, 189)" stroke-width="1px" opacity="0.25"></line><line x1="0" y1="53.06999988555909" x2="268.08499813079834" y2="53.06999988555909" fill="rgb(0, 0, 0)" stroke="rgb(189, 189, 189)" stroke-width="1px" opacity="0.25"></line><line x1="0" y1="35.379999923706045" x2="268.08499813079834" y2="35.379999923706045" fill="rgb(0, 0, 0)" stroke="rgb(189, 189, 189)" stroke-width="1px" opacity="0.25"></line><line x1="0" y1="17.689999961853022" x2="268.08499813079834" y2="17.689999961853022" fill="rgb(0, 0, 0)" stroke="rgb(189, 189, 189)" stroke-width="1px" opacity="0.25"></line><line x1="0" y1="0" x2="268.08499813079834" y2="0" fill="rgb(0, 0, 0)" stroke="rgb(189, 189, 189)" stroke-width="1px" opacity="0.25"></line></g></g></g><g><g><line x1="0" y1="212.2799995422363" x2="268.08499813079834" y2="212.2799995422363" fill="rgb(0, 0, 0)" stroke="rgb(153, 153, 153)" stroke-width="1.5px"></line></g></g><g><g><line x1="22.34041651089986" y1="0" x2="22.34041651089986" y2="176.89999961853027" fill="rgb(0, 0, 0)" stroke="rgb(153, 153, 153)" stroke-width="1.5px"></line></g></g><g><g><g><g><g><path style="fill: none;" stroke="rgb(51, 187, 238)" stroke-width="2px" d="M26.808499813079834,-12.369045137967081L29.042541464169823,2.6455258488000797L31.276583115259807,14.237738505245439L33.51062476634979,22.77204175548368L35.74466641743978,31.54621047236399L37.97870806852976,40.02867986057711L40.21274971961975,46.917351002744375L42.44679137070973,53.15050894628452L44.68083302179972,58.349500192654L46.91487467288971,61.84200352377366L49.14891632397969,66.75990995197786L51.38295797506969,70.03261208410969L53.61699962615967,74.09537086877064L55.85104127724966,77.31580668953197L58.085082928339645,79.39244983923894L60.31912457942963,81.7571916704542L62.553166230519615,84.24165739732328L64.7872078816096,86.41037969612489L67.02124953269958,89.38273258888329L69.25529118378958,91.90170291938092L71.48933283487956,94.31203660483155L73.72337448596954,96.10875835164659L75.95741613705952,97.76138622361587L78.19145778814952,99.45891770285829L80.4254994392395,101.52383902917195L82.6595410903295,103.79610914744788L84.89358274141946,104.65028158515801L87.12762439250946,106.26993792326961L89.36166604359944,107.86531792902562L91.59570769468944,109.21441587900857L93.82974934577942,110.3228804584754L96.0637909968694,111.32435428840182L98.29783264795938,112.02244690992141L100.53187429904938,113.72186823023796L102.76591595013937,115.2933392084201L104.99995760122935,115.43304107092298L107.23399925231934,116.99559302768937L109.46804090340932,118.4654042478129L111.70208255449931,119.60607915565008L113.9361242055893,120.3487321322988L116.17016585667929,121.49711989463717L118.40420750776926,122.09509403550624L120.63824915885925,123.43948731769397L122.87229080994923,124.52855652197107L125.10633246103923,125.61307355247294L127.34037411212921,126.55949725142408L129.5744157632192,127.17980817743106L131.80845741430917,128.16276213943308L134.04249906539917,128.75706319110276L136.27654071648914,130.161138353505L138.51058236757916,130.79489538300348L140.74462401866913,131.29425795698054L142.97866566975912,132.58890541807088L145.2127073208491,133.65762732929676L147.4467489719391,134.61918643258002L149.68079062302908,134.764313574303L151.91483227411905,135.40506644399596L154.14887392520905,136.54713535465822L156.38291557629904,137.2593932229876L158.616957227389,138.08587758120035L160.850998878479,139.33646204388535L163.08504052956897,139.49034569869465L165.319082180659,139.92339142732072L167.55312383174896,140.51029302049258L169.78716548283893,141.21012440890973L172.02120713392895,141.77160362960467L174.25524878501892,142.26560822448988L176.48929043610892,143.11168609468854L178.72333208719888,143.97709546420145L180.95737373828888,144.40967944330626L183.19141538937888,145.44884193219255L185.42545704046884,146.34278406247816L187.65949869155884,147.2681408625997L189.89354034264883,147.61918500514463L192.1275819937388,148.92814421525853L194.3616236448288,149.03254470051183L196.59566529591876,149.55541219404049L198.8297069470088,150.3414512952178L201.06374859809875,151.53069831897764L203.29779024918872,152.26415108559073L205.53183190027875,152.85624175422487L207.7658735513687,152.6558715553586L209.9999152024587,153.19902380196461L212.23395685354868,154.30435854636542L214.46799850463867,155.06826836172618L216.70204015572867,155.67799270786438L218.93608180681863,156.49413914596116L221.17012345790863,157.31777325698803L223.40416510899863,158.077876276123L225.6382067600886,158.52613284597638L227.8722484111786,158.8684984990355L230.10629006226856,159.4292633121342L232.34033171335858,159.73502580054972L234.57437336444855,160.4158651331727L236.80841501553851,160.6376755773836L239.04245666662854,161.21417522199724L241.2764983177185,161.39780058214848L243.5105399688085,162.15940901435994" fill="none"></path></g></g></g></g><g opacity="0.2"><g><g><g><path style="fill: none;" stroke="rgb(51, 187, 238)" stroke-width="2px" d="M24.574458161989845,-3.155898803819658L26.808499813079834,12.161130035819221L29.042541464169823,20.30266132923826L31.276583115259807,29.37253134950053L33.51062476634979,34.578055499733274L35.74466641743978,44.09341212420228L37.97870806852976,52.396201660297926L40.21274971961975,57.076802881958436L42.44679137070973,62.406022055282314L44.68083302179972,66.10083259424938L46.91487467288971,67.06175247155413L49.14891632397969,74.12071177651966L51.38295797506969,74.93525371813446L53.61699962615967,80.18473342532074L55.85104127724966,82.1441891198239L58.085082928339645,82.50653579801478L60.31912457942963,85.30370400958232L62.553166230519615,87.96797750427955L64.7872078816096,89.66326491451893L67.02124953269958,93.84109891712411L69.25529118378958,95.68007552733575L71.48933283487956,97.92748954517349L73.72337448596954,98.80381968798714L75.95741613705952,100.24031628539815L78.19145778814952,102.00520768252558L80.4254994392395,104.62121573507473L82.6595410903295,107.20451083639189L84.89358274141946,105.93153945490967L87.12762439250946,108.69942153527758L89.36166604359944,110.2583874086143L91.59570769468944,111.23806253555769L93.82974934577942,111.98557719534725L96.0637909968694,112.82656496155793L98.29783264795938,113.06958581219894L100.53187429904938,116.27100016689147L102.76591595013937,117.65054565138007L104.99995760122935,115.6425938633805L107.23399925231934,119.33942095413583L109.46804090340932,120.67012107308626L111.70208255449931,121.31709151511869L113.9361242055893,121.4627115963784L116.17016585667929,123.21970153731583L118.40420750776926,122.99205524655078L120.63824915885925,125.45607724062626L122.87229080994923,126.16216032821688L125.10633246103923,127.23984909812428L127.34037411212921,127.97913279979765L129.5744157632192,128.11027456642063L131.80845741430917,129.63719308241627L134.04249906539917,129.6485147686001L136.27654071648914,132.2672510970981L138.51058236757916,131.7455309272484L140.74462401866913,132.04330181794487L142.97866566975912,134.5308766097043L145.2127073208491,135.2607101961346L147.4467489719391,136.06152508750438L149.68079062302908,134.9820042868874L151.91483227411905,136.36619574853523L154.14887392520905,138.26023872065147L156.38291557629904,138.3277800254816L158.616957227389,139.32560411851944L160.850998878479,141.2123387379128L163.08504052956897,139.7211711809086L165.319082180659,140.57296002025976L167.55312383174896,141.39064541025041L169.78716548283893,142.25987149153545L172.02120713392895,142.61382246064704L174.25524878501892,143.00661511681773L176.48929043610892,144.3808028999865L178.72333208719888,145.27520951847086L180.95737373828888,145.05855541196345L183.19141538937888,147.00758566552202L185.42545704046884,147.68369725790654L187.65949869155884,148.65617606278198L189.89354034264883,148.14575121896203L192.1275819937388,150.89158303042942L194.3616236448288,149.18914542839173L196.59566529591876,150.33971343433348L198.8297069470088,151.52050994698376L201.06374859809875,153.3145688546174L203.29779024918872,153.36433023551035L205.53183190027875,153.74437775717607L207.7658735513687,152.35531625705914L209.9999152024587,154.01375217187362L212.23395685354868,155.96236066296666L214.46799850463867,156.21413308476724L216.70204015572867,156.59257922707167L218.93608180681863,157.71835880310627L221.17012345790863,158.55322442352838L223.40416510899863,159.2180308048254L225.6382067600886,159.1985177007565L227.8722484111786,159.3820469786242L230.10629006226856,160.27041053178226L232.34033171335858,160.19366953317297L234.57437336444855,161.43712413210724L236.80841501553851,160.97039124369988L239.04245666662854,162.07892468891777L241.2764983177185,161.67323862237532L243.5105399688085,163.30182166267713" fill="none"></path></g></g></g></g></g></g><g transform="translate(61, 176)" clip-path="url(#clip_1)"><clipPath id="clip_1"><rect width="268" height="23"></rect></clipPath><g><g><line x1="0" y1="0" x2="0" y2="5" style="visibility: inherit;" fill="rgb(0, 0, 0)" stroke="rgb(204, 204, 204)" stroke-width="1px"></line><line x1="22.34041651089986" y1="0" x2="22.34041651089986" y2="5" style="visibility: inherit;" fill="rgb(0, 0, 0)" stroke="rgb(204, 204, 204)" stroke-width="1px"></line><line x1="44.68083302179972" y1="0" x2="44.68083302179972" y2="5" style="visibility: inherit;" fill="rgb(0, 0, 0)" stroke="rgb(204, 204, 204)" stroke-width="1px"></line><line x1="67.02124953269958" y1="0" x2="67.02124953269958" y2="5" style="visibility: inherit;" fill="rgb(0, 0, 0)" stroke="rgb(204, 204, 204)" stroke-width="1px"></line><line x1="89.36166604359944" y1="0" x2="89.36166604359944" y2="5" style="visibility: inherit;" fill="rgb(0, 0, 0)" stroke="rgb(204, 204, 204)" stroke-width="1px"></line><line x1="111.70208255449931" y1="0" x2="111.70208255449931" y2="5" style="visibility: inherit;" fill="rgb(0, 0, 0)" stroke="rgb(204, 204, 204)" stroke-width="1px"></line><line x1="134.04249906539917" y1="0" x2="134.04249906539917" y2="5" style="visibility: inherit;" fill="rgb(0, 0, 0)" stroke="rgb(204, 204, 204)" stroke-width="1px"></line><line x1="156.38291557629904" y1="0" x2="156.38291557629904" y2="5" style="visibility: inherit;" fill="rgb(0, 0, 0)" stroke="rgb(204, 204, 204)" stroke-width="1px"></line><line x1="178.72333208719888" y1="0" x2="178.72333208719888" y2="5" style="visibility: inherit;" fill="rgb(0, 0, 0)" stroke="rgb(204, 204, 204)" stroke-width="1px"></line><line x1="201.06374859809875" y1="0" x2="201.06374859809875" y2="5" style="visibility: inherit;" fill="rgb(0, 0, 0)" stroke="rgb(204, 204, 204)" stroke-width="1px"></line><line x1="223.40416510899863" y1="0" x2="223.40416510899863" y2="5" style="visibility: inherit;" fill="rgb(0, 0, 0)" stroke="rgb(204, 204, 204)" stroke-width="1px"></line><line x1="245.74458161989847" y1="0" x2="245.74458161989847" y2="5" style="visibility: inherit;" fill="rgb(0, 0, 0)" stroke="rgb(204, 204, 204)" stroke-width="1px"></line><line x1="268.08499813079834" y1="0" x2="268.08499813079834" y2="5" style="visibility: inherit;" fill="rgb(0, 0, 0)" stroke="rgb(204, 204, 204)" stroke-width="1px"></line></g><g transform="translate(0, 8)"><text style="text-anchor: middle; visibility: hidden; font-family: Roboto, sans-serif; font-size: 12px; font-weight: 200;" x="0" y="0" dx="0em" dy="0.95em" fill="rgb(255, 255, 255)" stroke="none" stroke-width="1px">-10</text><text style="text-anchor: middle; visibility: inherit; font-family: Roboto, sans-serif; font-size: 12px; font-weight: 200;" x="22.34041651089986" y="0" dx="0em" dy="0.95em" fill="rgb(255, 255, 255)" stroke="none" stroke-width="1px">0</text><text style="text-anchor: middle; visibility: hidden; font-family: Roboto, sans-serif; font-size: 12px; font-weight: 200;" x="44.68083302179972" y="0" dx="0em" dy="0.95em" fill="rgb(255, 255, 255)" stroke="none" stroke-width="1px">10</text><text style="text-anchor: middle; visibility: inherit; font-family: Roboto, sans-serif; font-size: 12px; font-weight: 200;" x="67.02124953269958" y="0" dx="0em" dy="0.95em" fill="rgb(255, 255, 255)" stroke="none" stroke-width="1px">20</text><text style="text-anchor: middle; visibility: hidden; font-family: Roboto, sans-serif; font-size: 12px; font-weight: 200;" x="89.36166604359944" y="0" dx="0em" dy="0.95em" fill="rgb(255, 255, 255)" stroke="none" stroke-width="1px">30</text><text style="text-anchor: middle; visibility: inherit; font-family: Roboto, sans-serif; font-size: 12px; font-weight: 200;" x="111.70208255449931" y="0" dx="0em" dy="0.95em" fill="rgb(255, 255, 255)" stroke="none" stroke-width="1px">40</text><text style="text-anchor: middle; visibility: hidden; font-family: Roboto, sans-serif; font-size: 12px; font-weight: 200;" x="134.04249906539917" y="0" dx="0em" dy="0.95em" fill="rgb(255, 255, 255)" stroke="none" stroke-width="1px">50</text><text style="text-anchor: middle; visibility: inherit; font-family: Roboto, sans-serif; font-size: 12px; font-weight: 200;" x="156.38291557629904" y="0" dx="0em" dy="0.95em" fill="rgb(255, 255, 255)" stroke="none" stroke-width="1px">60</text><text style="text-anchor: middle; visibility: hidden; font-family: Roboto, sans-serif; font-size: 12px; font-weight: 200;" x="178.72333208719888" y="0" dx="0em" dy="0.95em" fill="rgb(255, 255, 255)" stroke="none" stroke-width="1px">70</text><text style="text-anchor: middle; visibility: inherit; font-family: Roboto, sans-serif; font-size: 12px; font-weight: 200;" x="201.06374859809875" y="0" dx="0em" dy="0.95em" fill="rgb(255, 255, 255)" stroke="none" stroke-width="1px">80</text><text style="text-anchor: middle; visibility: hidden; font-family: Roboto, sans-serif; font-size: 12px; font-weight: 200;" x="223.40416510899863" y="0" dx="0em" dy="0.95em" fill="rgb(255, 255, 255)" stroke="none" stroke-width="1px">90</text><text style="text-anchor: middle; visibility: inherit; font-family: Roboto, sans-serif; font-size: 12px; font-weight: 200;" x="245.74458161989847" y="0" dx="0em" dy="0.95em" fill="rgb(255, 255, 255)" stroke="none" stroke-width="1px">100</text><text style="text-anchor: middle; visibility: hidden; font-family: Roboto, sans-serif; font-size: 12px; font-weight: 200;" x="268.08499813079834" y="0" dx="0em" dy="0.95em" fill="rgb(255, 255, 255)" stroke="none" stroke-width="1px">110</text></g><line x1="0" y1="0" x2="268.08499813079834" y2="0" fill="rgb(0, 0, 0)" stroke="rgb(204, 204, 204)" stroke-width="1px"></line></g></g></g></g></svg>