<svg viewBox="0 0 330 200" xmlns="http://www.w3.org/2000/svg"><g><g><g><g><g><line x1="61.91500186920166" y1="176.89999961853027" x2="56.91500186920166" y2="176.89999961853027" style="visibility: inherit;" fill="rgb(0, 0, 0)" stroke="rgb(204, 204, 204)" stroke-width="1px"></line><line x1="61.91500186920166" y1="160.81818147139114" x2="56.91500186920166" y2="160.81818147139114" style="visibility: inherit;" fill="rgb(0, 0, 0)" stroke="rgb(204, 204, 204)" stroke-width="1px"></line><line x1="61.91500186920166" y1="144.73636332425204" x2="56.91500186920166" y2="144.73636332425204" style="visibility: inherit;" fill="rgb(0, 0, 0)" stroke="rgb(204, 204, 204)" stroke-width="1px"></line><line x1="61.91500186920166" y1="128.65454517711294" x2="56.91500186920166" y2="128.65454517711294" style="visibility: inherit;" fill="rgb(0, 0, 0)" stroke="rgb(204, 204, 204)" stroke-width="1px"></line><line x1="61.91500186920166" y1="112.5727270299738" x2="56.91500186920166" y2="112.5727270299738" style="visibility: inherit;" fill="rgb(0, 0, 0)" stroke="rgb(204, 204, 204)" stroke-width="1px"></line><line x1="61.91500186920166" y1="96.49090888283469" x2="56.91500186920166" y2="96.49090888283469" style="visibility: inherit;" fill="rgb(0, 0, 0)" stroke="rgb(204, 204, 204)" stroke-width="1px"></line><line x1="61.91500186920166" y1="80.40909073569559" x2="56.91500186920166" y2="80.40909073569559" style="visibility: inherit;" fill="rgb(0, 0, 0)" stroke="rgb(204, 204, 204)" stroke-width="1px"></line><line x1="61.91500186920166" y1="64.32727258855644" x2="56.91500186920166" y2="64.32727258855644" style="visibility: inherit;" fill="rgb(0, 0, 0)" stroke="rgb(204, 204, 204)" stroke-width="1px"></line><line x1="61.91500186920166" y1="48.245454441417344" x2="56.91500186920166" y2="48.245454441417344" style="visibility: inherit;" fill="rgb(0, 0, 0)" stroke="rgb(204, 204, 204)" stroke-width="1px"></line><line x1="61.91500186920166" y1="32.163636294278206" x2="56.91500186920166" y2="32.163636294278206" style="visibility: inherit;" fill="rgb(0, 0, 0)" stroke="rgb(204, 204, 204)" stroke-width="1px"></line><line x1="61.91500186920166" y1="16.081818147139142" x2="56.91500186920166" y2="16.081818147139142" style="visibility: inherit;" fill="rgb(0, 0, 0)" stroke="rgb(204, 204, 204)" stroke-width="1px"></line><line x1="61.91500186920166" y1="0" x2="56.91500186920166" y2="0" style="visibility: inherit;" fill="rgb(0, 0, 0)" stroke="rgb(204, 204, 204)" stroke-width="1px"></line></g><g transform="translate(51.91500186920166, 0)"><text style="text-anchor: end; visibility: hidden; font-family: Roboto, sans-serif; font-size: 12px; font-weight: 200;" x="0" y="176.89999961853027" dx="0em" dy="0.3em" fill="rgb(255, 255, 255)" stroke="none" stroke-width="1px">3e-3</text><text style="text-anchor: end; visibility: inherit; font-family: Roboto, sans-serif; font-size: 12px; font-weight: 200;" x="0" y="160.81818147139114" dx="0em" dy="0.3em" fill="rgb(255, 255, 255)" stroke="none" stroke-width="1px">4e-3</text><text style="text-anchor: end; visibility: hidden; font-family: Roboto, sans-serif; font-size: 12px; font-weight: 200;" x="0" y="144.73636332425204" dx="0em" dy="0.3em" fill="rgb(255, 255, 255)" stroke="none" stroke-width="1px">5e-3</text><text style="text-anchor: end; visibility: inherit; font-family: Roboto, sans-serif; font-size: 12px; font-weight: 200;" x="0" y="128.65454517711294" dx="0em" dy="0.3em" fill="rgb(255, 255, 255)" stroke="none" stroke-width="1px">6e-3</text><text style="text-anchor: end; visibility: hidden; font-family: Roboto, sans-serif; font-size: 12px; font-weight: 200;" x="0" y="112.5727270299738" dx="0em" dy="0.3em" fill="rgb(255, 255, 255)" stroke="none" stroke-width="1px">7e-3</text><text style="text-anchor: end; visibility: inherit; font-family: Roboto, sans-serif; font-size: 12px; font-weight: 200;" x="0" y="96.49090888283469" dx="0em" dy="0.3em" fill="rgb(255, 255, 255)" stroke="none" stroke-width="1px">8e-3</text><text style="text-anchor: end; visibility: hidden; font-family: Roboto, sans-serif; font-size: 12px; font-weight: 200;" x="0" y="80.40909073569559" dx="0em" dy="0.3em" fill="rgb(255, 255, 255)" stroke="none" stroke-width="1px">9e-3</text><text style="text-anchor: end; visibility: inherit; font-family: Roboto, sans-serif; font-size: 12px; font-weight: 200;" x="0" y="64.32727258855644" dx="0em" dy="0.3em" fill="rgb(255, 255, 255)" stroke="none" stroke-width="1px">0.01</text><text style="text-anchor: end; visibility: hidden; font-family: Roboto, sans-serif; font-size: 12px; font-weight: 200;" x="0" y="48.245454441417344" dx="0em" dy="0.3em" fill="rgb(255, 255, 255)" stroke="none" stroke-width="1px">0.011</text><text style="text-anchor: end; visibility: inherit; font-family: Roboto, sans-serif; font-size: 12px; font-weight: 200;" x="0" y="32.163636294278206" dx="0em" dy="0.3em" fill="rgb(255, 255, 255)" stroke="none" stroke-width="1px">0.012</text><text style="text-anchor: end; visibility: hidden; font-family: Roboto, sans-serif; font-size: 12px; font-weight: 200;" x="0" y="16.081818147139142" dx="0em" dy="0.3em" fill="rgb(255, 255, 255)" stroke="none" stroke-width="1px">0.013</text><text style="text-anchor: end; visibility: hidden; font-family: Roboto, sans-serif; font-size: 12px; font-weight: 200;" x="0" y="0" dx="0em" dy="0.3em" fill="rgb(255, 255, 255)" stroke="none" stroke-width="1px">0.014</text></g><line x1="61.91500186920166" y1="0" x2="61.91500186920166" y2="176.89999961853027" fill="rgb(0, 0, 0)" stroke="rgb(204, 204, 204)" stroke-width="1px"></line></g></g><g transform="translate(61, 0)" clip-path="url(#clip_0)"><clipPath id="clip_0"><rect width="268" height="176"></rect></clipPath><g><g><g><line x1="0" y1="0" x2="0" y2="176.89999961853027" fill="rgb(0, 0, 0)" stroke="rgb(189, 189, 189)" stroke-width="1px" opacity="0.25"></line><line x1="22.34041651089986" y1="0" x2="22.34041651089986" y2="176.89999961853027" fill="rgb(0, 0, 0)" stroke="rgb(189, 189, 189)" stroke-width="1px" opacity="0.25"></line><line x1="44.68083302179972" y1="0" x2="44.68083302179972" y2="176.89999961853027" fill="rgb(0, 0, 0)" stroke="rgb(189, 189, 189)" stroke-width="1px" opacity="0.25"></line><line x1="67.02124953269958" y1="0" x2="67.02124953269958" y2="176.89999961853027" fill="rgb(0, 0, 0)" stroke="rgb(189, 189, 189)" stroke-width="1px" opacity="0.25"></line><line x1="89.36166604359944" y1="0" x2="89.36166604359944" y2="176.89999961853027" fill="rgb(0, 0, 0)" stroke="rgb(189, 189, 189)" stroke-width="1px" opacity="0.25"></line><line x1="111.70208255449931" y1="0" x2="111.70208255449931" y2="176.89999961853027" fill="rgb(0, 0, 0)" stroke="rgb(189, 189, 189)" stroke-width="1px" opacity="0.25"></line><line x1="134.04249906539917" y1="0" x2="134.04249906539917" y2="176.89999961853027" fill="rgb(0, 0, 0)" stroke="rgb(189, 189, 189)" stroke-width="1px" opacity="0.25"></line><line x1="156.38291557629904" y1="0" x2="156.38291557629904" y2="176.89999961853027" fill="rgb(0, 0, 0)" stroke="rgb(189, 189, 189)" stroke-width="1px" opacity="0.25"></line><line x1="178.72333208719888" y1="0" x2="178.72333208719888" y2="176.89999961853027" fill="rgb(0, 0, 0)" stroke="rgb(189, 189, 189)" stroke-width="1px" opacity="0.25"></line><line x1="201.06374859809875" y1="0" x2="201.06374859809875" y2="176.89999961853027" fill="rgb(0, 0, 0)" stroke="rgb(189, 189, 189)" stroke-width="1px" opacity="0.25"></line><line x1="223.40416510899863" y1="0" x2="223.40416510899863" y2="176.89999961853027" fill="rgb(0, 0, 0)" stroke="rgb(189, 189, 189)" stroke-width="1px" opacity="0.25"></line><line x1="245.74458161989847" y1="0" x2="245.74458161989847" y2="176.89999961853027" fill="rgb(0, 0, 0)" stroke="rgb(189, 189, 189)" stroke-width="1px" opacity="0.25"></line><line x1="268.08499813079834" y1="0" x2="268.08499813079834" y2="176.89999961853027" fill="rgb(0, 0, 0)" stroke="rgb(189, 189, 189)" stroke-width="1px" opacity="0.25"></line></g><g><line x1="0" y1="176.89999961853027" x2="268.08499813079834" y2="176.89999961853027" fill="rgb(0, 0, 0)" stroke="rgb(189, 189, 189)" stroke-width="1px" opacity="0.25"></line><line x1="0" y1="160.81818147139114" x2="268.08499813079834" y2="160.81818147139114" fill="rgb(0, 0, 0)" stroke="rgb(189, 189, 189)" stroke-width="1px" opacity="0.25"></line><line x1="0" y1="144.73636332425204" x2="268.08499813079834" y2="144.73636332425204" fill="rgb(0, 0, 0)" stroke="rgb(189, 189, 189)" stroke-width="1px" opacity="0.25"></line><line x1="0" y1="128.65454517711294" x2="268.08499813079834" y2="128.65454517711294" fill="rgb(0, 0, 0)" stroke="rgb(189, 189, 189)" stroke-width="1px" opacity="0.25"></line><line x1="0" y1="112.5727270299738" x2="268.08499813079834" y2="112.5727270299738" fill="rgb(0, 0, 0)" stroke="rgb(189, 189, 189)" stroke-width="1px" opacity="0.25"></line><line x1="0" y1="96.49090888283469" x2="268.08499813079834" y2="96.49090888283469" fill="rgb(0, 0, 0)" stroke="rgb(189, 189, 189)" stroke-width="1px" opacity="0.25"></line><line x1="0" y1="80.40909073569559" x2="268.08499813079834" y2="80.40909073569559" fill="rgb(0, 0, 0)" stroke="rgb(189, 189, 189)" stroke-width="1px" opacity="0.25"></line><line x1="0" y1="64.32727258855644" x2="268.08499813079834" y2="64.32727258855644" fill="rgb(0, 0, 0)" stroke="rgb(189, 189, 189)" stroke-width="1px" opacity="0.25"></line><line x1="0" y1="48.245454441417344" x2="268.08499813079834" y2="48.245454441417344" fill="rgb(0, 0, 0)" stroke="rgb(189, 189, 189)" stroke-width="1px" opacity="0.25"></line><line x1="0" y1="32.163636294278206" x2="268.08499813079834" y2="32.163636294278206" fill="rgb(0, 0, 0)" stroke="rgb(189, 189, 189)" stroke-width="1px" opacity="0.25"></line><line x1="0" y1="16.081818147139142" x2="268.08499813079834" y2="16.081818147139142" fill="rgb(0, 0, 0)" stroke="rgb(189, 189, 189)" stroke-width="1px" opacity="0.25"></line><line x1="0" y1="0" x2="268.08499813079834" y2="0" fill="rgb(0, 0, 0)" stroke="rgb(189, 189, 189)" stroke-width="1px" opacity="0.25"></line></g></g></g><g><g><line x1="0" y1="225.1454540599476" x2="268.08499813079834" y2="225.1454540599476" fill="rgb(0, 0, 0)" stroke="rgb(153, 153, 153)" stroke-width="1.5px"></line></g></g><g><g><line x1="22.34041651089986" y1="0" x2="22.34041651089986" y2="176.89999961853027" fill="rgb(0, 0, 0)" stroke="rgb(153, 153, 153)" stroke-width="1.5px"></line></g></g><g><g><g><g><g><path style="fill: none;" stroke="rgb(51, 187, 238)" stroke-width="2px" d="M22.34041651089986,-38.76932340370617L24.574458161989845,6.417831246609021L26.808499813079834,39.89478660531802L29.042541464169823,60.34870385382912L31.276583115259807,74.18428134178727L33.51062476634979,81.78694945291318L35.74466641743978,88.61125131498001L37.97870806852976,93.73154570404878L40.21274971961975,99.81907506327619L42.44679137070973,102.58064080692992L44.68083302179972,106.94738712131388L46.91487467288971,109.17221523517144L49.14891632397969,111.7270815919896L51.38295797506969,113.77969190958505L53.61699962615967,116.89667793997839L55.85104127724966,119.15662115442052L58.085082928339645,119.49969081255882L60.31912457942963,121.09526602537736L62.553166230519615,121.57144125615008L64.7872078816096,124.09654972283587L67.02124953269958,126.34171205566513L69.25529118378958,128.8106928406677L71.48933283487956,131.45586751209274L73.72337448596954,132.03914753917851L75.95741613705952,132.49601649726216L78.19145778814952,133.69851629244562L80.4254994392395,135.41198441629118L82.6595410903295,137.21522990748946L84.89358274141946,137.31646756734472L87.12762439250946,137.75798564493968L89.36166604359944,139.00983271114674L91.59570769468944,139.12482234810517L93.82974934577942,140.55981435221923L96.0637909968694,140.96954163262785L98.29783264795938,141.0756152557564L100.53187429904938,142.3128674193813L102.76591595013937,143.07085806909132L104.99995760122935,143.77568750485153L107.23399925231934,145.4203902915496L109.46804090340932,146.1194369603939L111.70208255449931,146.77784072647034L113.9361242055893,147.78675106550676L116.17016585667929,149.9428381752303L118.40420750776926,149.65578283177666L120.63824915885925,150.50679089837232L122.87229080994923,150.50953142393516L125.10633246103923,150.76698905288677L127.34037411212921,152.29385712568947L129.5744157632192,152.82053365183774L131.80845741430917,153.58147200940206L134.04249906539917,153.78606490097923L136.27654071648914,153.78605420917083L138.51058236757916,155.04689889653616L140.74462401866913,155.68820884008633L142.97866566975912,155.4336562278881L145.2127073208491,156.39217889305627L147.4467489719391,157.3906036167313L149.68079062302908,157.54192823815927L151.91483227411905,158.69242516941446L154.14887392520905,158.6453219811343L156.38291557629904,159.29499530393858L158.616957227389,159.5930390021218L160.850998878479,159.9067183775324L163.08504052956897,160.02699169201486L165.319082180659,160.7119004581164L167.55312383174896,160.5710887514307L169.78716548283893,160.8981376513404L172.02120713392895,161.9838244908392L174.25524878501892,162.50571238282586L176.48929043610892,163.19523367056686L178.72333208719888,163.94468044901294L180.95737373828888,164.06472227780182L183.19141538937888,164.51517135088636L185.42545704046884,165.1505783542428L187.65949869155884,165.56483415605265L189.89354034264883,165.89550101488075L192.1275819937388,166.67347554777467L194.3616236448288,166.86044573405576L196.59566529591876,166.38558122318304L198.8297069470088,167.4372002115531L201.06374859809875,167.75788413389154L203.29779024918872,169.1100738693566L205.53183190027875,169.6838467765743L207.7658735513687,169.6009217577539L209.9999152024587,169.8450734782055L212.23395685354868,170.21295236147444L214.46799850463867,170.60592532561472L216.70204015572867,171.10199615521938L218.93608180681863,171.05451983322845L221.17012345790863,171.62459675499557L223.40416510899863,171.95891608788673L225.6382067600886,172.26792730096167L227.8722484111786,173.00097072333986L230.10629006226856,172.93395841163976L232.34033171335858,173.96760678848395L234.57437336444855,174.30227490686804L236.80841501553851,174.16300432855957L239.04245666662854,174.6183184180792L241.2764983177185,174.34452169242996L243.5105399688085,174.69110344340297" fill="none"></path></g></g></g></g><g opacity="0.2"><g><g><g><path style="fill: none;" stroke="rgb(51, 187, 238)" stroke-width="2px" d="M22.34041651089986,-38.76932340370617L24.574458161989845,33.53012403679806L26.808499813079834,72.03266374967869L29.042541464169823,84.4025105380782L31.276583115259807,92.24801131006545L33.51062476634979,92.30417641112031L35.74466641743978,98.37011216656533L37.97870806852976,101.19698407813715L40.21274971961975,108.79699842643389L42.44679137070973,106.68124409233768L44.68083302179972,113.45790052521085L46.91487467288971,112.49734998961061L49.14891632397969,115.55103904528231L51.38295797506969,116.85458610868437L53.61699962615967,121.5684930854968L55.85104127724966,122.5449420890356L58.085082928339645,120.0141501241845L60.31912457942963,123.48822372823149L62.553166230519615,122.28563156180547L64.7872078816096,127.88398161794872L67.02124953269958,129.70933242487084L69.25529118378958,132.51408277530717L71.48933283487956,135.42357729487074L73.72337448596954,132.91406067029922L75.95741613705952,133.18131668715858L78.19145778814952,135.5022608571085L80.4254994392395,137.98218221776418L82.6595410903295,139.92009537588035L84.89358274141946,137.46832396387336L87.12762439250946,138.4202625173118L89.36166604359944,140.8876028953312L91.59570769468944,139.2973067806637L93.82974934577942,142.7123021870811L96.0637909968694,141.58413252389283L98.29783264795938,141.2347256858906L100.53187429904938,144.16874563291475L102.76591595013937,144.20784403192906L104.99995760122935,144.8329316519489L107.23399925231934,147.88744446243606L109.46804090340932,147.16800696132424L111.70208255449931,147.7654463742648L113.9361242055893,149.3001165728476L116.17016585667929,153.17696883825923L118.40420750776926,149.2251998167206L120.63824915885925,151.78330299804463L122.87229080994923,150.51364221227897L125.10633246103923,151.15317549629015L127.34037411212921,154.58415923480783L129.5744157632192,153.61054844104234L131.80845741430917,154.72287954573315L134.04249906539917,154.09295423834246L136.27654071648914,153.78603817145822L138.51058236757916,156.9381659275787L140.74462401866913,156.6501737554099L142.97866566975912,155.05182730959115L145.2127073208491,157.82996289080765L147.4467489719391,158.88824070224328L149.68079062302908,157.7689151703011L151.91483227411905,160.41817056629705L154.14887392520905,158.57466719871402L156.38291557629904,160.26950528814498L158.616957227389,160.04010454939657L160.850998878479,160.3772374406483L163.08504052956897,160.20740166373858L165.319082180659,161.73926360726867L167.55312383174896,160.35987119140216L169.78716548283893,161.3887110012049L172.02120713392895,163.6123547500874L174.25524878501892,163.28854422080587L176.48929043610892,164.2295156021784L178.72333208719888,165.06885061668203L180.95737373828888,164.24478502098515L183.19141538937888,165.1908449605132L185.42545704046884,166.10368885927744L187.65949869155884,166.18621785876744L189.89354034264883,166.39150130312288L192.1275819937388,167.8404373471155L194.3616236448288,167.14090101347745L196.59566529591876,165.67328445687397L198.8297069470088,169.01462869410815L201.06374859809875,168.23891001739926L203.29779024918872,171.13835847255413L205.53183190027875,170.54450613740096L207.7658735513687,169.47653422952322L209.9999152024587,170.21130105888298L212.23395685354868,170.76477068637774L214.46799850463867,171.19538477182516L216.70204015572867,171.84610239962637L218.93608180681863,170.98330535024206L221.17012345790863,172.4797121376463L223.40416510899863,172.46039508722347L225.6382067600886,172.73144412057408L227.8722484111786,174.10053585690713L230.10629006226856,172.83343994408966L232.34033171335858,175.51807935375018L234.57437336444855,174.80427708444418L236.80841501553851,173.9540984610969L239.04245666662854,175.30128955235864L241.2764983177185,173.93382660395616L243.5105399688085,175.21097606986245" fill="none"></path></g></g></g></g></g></g><g transform="translate(61, 176)" clip-path="url(#clip_1)"><clipPath id="clip_1"><rect width="268" height="23"></rect></clipPath><g><g><line x1="0" y1="0" x2="0" y2="5" style="visibility: inherit;" fill="rgb(0, 0, 0)" stroke="rgb(204, 204, 204)" stroke-width="1px"></line><line x1="22.34041651089986" y1="0" x2="22.34041651089986" y2="5" style="visibility: inherit;" fill="rgb(0, 0, 0)" stroke="rgb(204, 204, 204)" stroke-width="1px"></line><line x1="44.68083302179972" y1="0" x2="44.68083302179972" y2="5" style="visibility: inherit;" fill="rgb(0, 0, 0)" stroke="rgb(204, 204, 204)" stroke-width="1px"></line><line x1="67.02124953269958" y1="0" x2="67.02124953269958" y2="5" style="visibility: inherit;" fill="rgb(0, 0, 0)" stroke="rgb(204, 204, 204)" stroke-width="1px"></line><line x1="89.36166604359944" y1="0" x2="89.36166604359944" y2="5" style="visibility: inherit;" fill="rgb(0, 0, 0)" stroke="rgb(204, 204, 204)" stroke-width="1px"></line><line x1="111.70208255449931" y1="0" x2="111.70208255449931" y2="5" style="visibility: inherit;" fill="rgb(0, 0, 0)" stroke="rgb(204, 204, 204)" stroke-width="1px"></line><line x1="134.04249906539917" y1="0" x2="134.04249906539917" y2="5" style="visibility: inherit;" fill="rgb(0, 0, 0)" stroke="rgb(204, 204, 204)" stroke-width="1px"></line><line x1="156.38291557629904" y1="0" x2="156.38291557629904" y2="5" style="visibility: inherit;" fill="rgb(0, 0, 0)" stroke="rgb(204, 204, 204)" stroke-width="1px"></line><line x1="178.72333208719888" y1="0" x2="178.72333208719888" y2="5" style="visibility: inherit;" fill="rgb(0, 0, 0)" stroke="rgb(204, 204, 204)" stroke-width="1px"></line><line x1="201.06374859809875" y1="0" x2="201.06374859809875" y2="5" style="visibility: inherit;" fill="rgb(0, 0, 0)" stroke="rgb(204, 204, 204)" stroke-width="1px"></line><line x1="223.40416510899863" y1="0" x2="223.40416510899863" y2="5" style="visibility: inherit;" fill="rgb(0, 0, 0)" stroke="rgb(204, 204, 204)" stroke-width="1px"></line><line x1="245.74458161989847" y1="0" x2="245.74458161989847" y2="5" style="visibility: inherit;" fill="rgb(0, 0, 0)" stroke="rgb(204, 204, 204)" stroke-width="1px"></line><line x1="268.08499813079834" y1="0" x2="268.08499813079834" y2="5" style="visibility: inherit;" fill="rgb(0, 0, 0)" stroke="rgb(204, 204, 204)" stroke-width="1px"></line></g><g transform="translate(0, 8)"><text style="text-anchor: middle; visibility: hidden; font-family: Roboto, sans-serif; font-size: 12px; font-weight: 200;" x="0" y="0" dx="0em" dy="0.95em" fill="rgb(255, 255, 255)" stroke="none" stroke-width="1px">-10</text><text style="text-anchor: middle; visibility: inherit; font-family: Roboto, sans-serif; font-size: 12px; font-weight: 200;" x="22.34041651089986" y="0" dx="0em" dy="0.95em" fill="rgb(255, 255, 255)" stroke="none" stroke-width="1px">0</text><text style="text-anchor: middle; visibility: hidden; font-family: Roboto, sans-serif; font-size: 12px; font-weight: 200;" x="44.68083302179972" y="0" dx="0em" dy="0.95em" fill="rgb(255, 255, 255)" stroke="none" stroke-width="1px">10</text><text style="text-anchor: middle; visibility: inherit; font-family: Roboto, sans-serif; font-size: 12px; font-weight: 200;" x="67.02124953269958" y="0" dx="0em" dy="0.95em" fill="rgb(255, 255, 255)" stroke="none" stroke-width="1px">20</text><text style="text-anchor: middle; visibility: hidden; font-family: Roboto, sans-serif; font-size: 12px; font-weight: 200;" x="89.36166604359944" y="0" dx="0em" dy="0.95em" fill="rgb(255, 255, 255)" stroke="none" stroke-width="1px">30</text><text style="text-anchor: middle; visibility: inherit; font-family: Roboto, sans-serif; font-size: 12px; font-weight: 200;" x="111.70208255449931" y="0" dx="0em" dy="0.95em" fill="rgb(255, 255, 255)" stroke="none" stroke-width="1px">40</text><text style="text-anchor: middle; visibility: hidden; font-family: Roboto, sans-serif; font-size: 12px; font-weight: 200;" x="134.04249906539917" y="0" dx="0em" dy="0.95em" fill="rgb(255, 255, 255)" stroke="none" stroke-width="1px">50</text><text style="text-anchor: middle; visibility: inherit; font-family: Roboto, sans-serif; font-size: 12px; font-weight: 200;" x="156.38291557629904" y="0" dx="0em" dy="0.95em" fill="rgb(255, 255, 255)" stroke="none" stroke-width="1px">60</text><text style="text-anchor: middle; visibility: hidden; font-family: Roboto, sans-serif; font-size: 12px; font-weight: 200;" x="178.72333208719888" y="0" dx="0em" dy="0.95em" fill="rgb(255, 255, 255)" stroke="none" stroke-width="1px">70</text><text style="text-anchor: middle; visibility: inherit; font-family: Roboto, sans-serif; font-size: 12px; font-weight: 200;" x="201.06374859809875" y="0" dx="0em" dy="0.95em" fill="rgb(255, 255, 255)" stroke="none" stroke-width="1px">80</text><text style="text-anchor: middle; visibility: hidden; font-family: Roboto, sans-serif; font-size: 12px; font-weight: 200;" x="223.40416510899863" y="0" dx="0em" dy="0.95em" fill="rgb(255, 255, 255)" stroke="none" stroke-width="1px">90</text><text style="text-anchor: middle; visibility: inherit; font-family: Roboto, sans-serif; font-size: 12px; font-weight: 200;" x="245.74458161989847" y="0" dx="0em" dy="0.95em" fill="rgb(255, 255, 255)" stroke="none" stroke-width="1px">100</text><text style="text-anchor: middle; visibility: hidden; font-family: Roboto, sans-serif; font-size: 12px; font-weight: 200;" x="268.08499813079834" y="0" dx="0em" dy="0.95em" fill="rgb(255, 255, 255)" stroke="none" stroke-width="1px">110</text></g><line x1="0" y1="0" x2="268.08499813079834" y2="0" fill="rgb(0, 0, 0)" stroke="rgb(204, 204, 204)" stroke-width="1px"></line></g></g></g></g></svg>