<svg viewBox="0 0 330 200" xmlns="http://www.w3.org/2000/svg"><g><g><g><g><g><line x1="72.29800224304199" y1="176.89999961853027" x2="67.29800224304199" y2="176.89999961853027" style="visibility: inherit;" fill="rgb(0, 0, 0)" stroke="rgb(204, 204, 204)" stroke-width="1px"></line><line x1="72.29800224304199" y1="157.24444410536023" x2="67.29800224304199" y2="157.24444410536023" style="visibility: inherit;" fill="rgb(0, 0, 0)" stroke="rgb(204, 204, 204)" stroke-width="1px"></line><line x1="72.29800224304199" y1="137.58888859219022" x2="67.29800224304199" y2="137.58888859219022" style="visibility: inherit;" fill="rgb(0, 0, 0)" stroke="rgb(204, 204, 204)" stroke-width="1px"></line><line x1="72.29800224304199" y1="117.9333330790202" x2="67.29800224304199" y2="117.9333330790202" style="visibility: inherit;" fill="rgb(0, 0, 0)" stroke="rgb(204, 204, 204)" stroke-width="1px"></line><line x1="72.29800224304199" y1="98.27777756585016" x2="67.29800224304199" y2="98.27777756585016" style="visibility: inherit;" fill="rgb(0, 0, 0)" stroke="rgb(204, 204, 204)" stroke-width="1px"></line><line x1="72.29800224304199" y1="78.62222205268014" x2="67.29800224304199" y2="78.62222205268014" style="visibility: inherit;" fill="rgb(0, 0, 0)" stroke="rgb(204, 204, 204)" stroke-width="1px"></line><line x1="72.29800224304199" y1="58.9666665395101" x2="67.29800224304199" y2="58.9666665395101" style="visibility: inherit;" fill="rgb(0, 0, 0)" stroke="rgb(204, 204, 204)" stroke-width="1px"></line><line x1="72.29800224304199" y1="39.31111102634008" x2="67.29800224304199" y2="39.31111102634008" style="visibility: inherit;" fill="rgb(0, 0, 0)" stroke="rgb(204, 204, 204)" stroke-width="1px"></line><line x1="72.29800224304199" y1="19.65555551317004" x2="67.29800224304199" y2="19.65555551317004" style="visibility: inherit;" fill="rgb(0, 0, 0)" stroke="rgb(204, 204, 204)" stroke-width="1px"></line><line x1="72.29800224304199" y1="0" x2="67.29800224304199" y2="0" style="visibility: inherit;" fill="rgb(0, 0, 0)" stroke="rgb(204, 204, 204)" stroke-width="1px"></line></g><g transform="translate(62.29800224304199, 0)"><text style="text-anchor: end; visibility: hidden; font-family: Roboto, sans-serif; font-size: 12px; font-weight: 200;" x="0" y="176.89999961853027" dx="0em" dy="0.3em" fill="rgb(255, 255, 255)" stroke="none" stroke-width="1px">-2e-4</text><text style="text-anchor: end; visibility: inherit; font-family: Roboto, sans-serif; font-size: 12px; font-weight: 200;" x="0" y="157.24444410536023" dx="0em" dy="0.3em" fill="rgb(255, 255, 255)" stroke="none" stroke-width="1px">0</text><text style="text-anchor: end; visibility: hidden; font-family: Roboto, sans-serif; font-size: 12px; font-weight: 200;" x="0" y="137.58888859219022" dx="0em" dy="0.3em" fill="rgb(255, 255, 255)" stroke="none" stroke-width="1px">2e-4</text><text style="text-anchor: end; visibility: inherit; font-family: Roboto, sans-serif; font-size: 12px; font-weight: 200;" x="0" y="117.9333330790202" dx="0em" dy="0.3em" fill="rgb(255, 255, 255)" stroke="none" stroke-width="1px">4e-4</text><text style="text-anchor: end; visibility: hidden; font-family: Roboto, sans-serif; font-size: 12px; font-weight: 200;" x="0" y="98.27777756585016" dx="0em" dy="0.3em" fill="rgb(255, 255, 255)" stroke="none" stroke-width="1px">6e-4</text><text style="text-anchor: end; visibility: inherit; font-family: Roboto, sans-serif; font-size: 12px; font-weight: 200;" x="0" y="78.62222205268014" dx="0em" dy="0.3em" fill="rgb(255, 255, 255)" stroke="none" stroke-width="1px">8e-4</text><text style="text-anchor: end; visibility: hidden; font-family: Roboto, sans-serif; font-size: 12px; font-weight: 200;" x="0" y="58.9666665395101" dx="0em" dy="0.3em" fill="rgb(255, 255, 255)" stroke="none" stroke-width="1px">1e-3</text><text style="text-anchor: end; visibility: inherit; font-family: Roboto, sans-serif; font-size: 12px; font-weight: 200;" x="0" y="39.31111102634008" dx="0em" dy="0.3em" fill="rgb(255, 255, 255)" stroke="none" stroke-width="1px">1.2e-3</text><text style="text-anchor: end; visibility: hidden; font-family: Roboto, sans-serif; font-size: 12px; font-weight: 200;" x="0" y="19.65555551317004" dx="0em" dy="0.3em" fill="rgb(255, 255, 255)" stroke="none" stroke-width="1px">1.4e-3</text><text style="text-anchor: end; visibility: hidden; font-family: Roboto, sans-serif; font-size: 12px; font-weight: 200;" x="0" y="0" dx="0em" dy="0.3em" fill="rgb(255, 255, 255)" stroke="none" stroke-width="1px">1.6e-3</text></g><line x1="72.29800224304199" y1="0" x2="72.29800224304199" y2="176.89999961853027" fill="rgb(0, 0, 0)" stroke="rgb(204, 204, 204)" stroke-width="1px"></line></g></g><g transform="translate(72, 0)" clip-path="url(#clip_0)"><clipPath id="clip_0"><rect width="257" height="176"></rect></clipPath><g><g><g><line x1="0" y1="0" x2="0" y2="176.89999961853027" fill="rgb(0, 0, 0)" stroke="rgb(189, 189, 189)" stroke-width="1px" opacity="0.25"></line><line x1="21.4751664797465" y1="0" x2="21.4751664797465" y2="176.89999961853027" fill="rgb(0, 0, 0)" stroke="rgb(189, 189, 189)" stroke-width="1px" opacity="0.25"></line><line x1="42.950332959493" y1="0" x2="42.950332959493" y2="176.89999961853027" fill="rgb(0, 0, 0)" stroke="rgb(189, 189, 189)" stroke-width="1px" opacity="0.25"></line><line x1="64.4254994392395" y1="0" x2="64.4254994392395" y2="176.89999961853027" fill="rgb(0, 0, 0)" stroke="rgb(189, 189, 189)" stroke-width="1px" opacity="0.25"></line><line x1="85.900665918986" y1="0" x2="85.900665918986" y2="176.89999961853027" fill="rgb(0, 0, 0)" stroke="rgb(189, 189, 189)" stroke-width="1px" opacity="0.25"></line><line x1="107.37583239873251" y1="0" x2="107.37583239873251" y2="176.89999961853027" fill="rgb(0, 0, 0)" stroke="rgb(189, 189, 189)" stroke-width="1px" opacity="0.25"></line><line x1="128.850998878479" y1="0" x2="128.850998878479" y2="176.89999961853027" fill="rgb(0, 0, 0)" stroke="rgb(189, 189, 189)" stroke-width="1px" opacity="0.25"></line><line x1="150.32616535822552" y1="0" x2="150.32616535822552" y2="176.89999961853027" fill="rgb(0, 0, 0)" stroke="rgb(189, 189, 189)" stroke-width="1px" opacity="0.25"></line><line x1="171.801331837972" y1="0" x2="171.801331837972" y2="176.89999961853027" fill="rgb(0, 0, 0)" stroke="rgb(189, 189, 189)" stroke-width="1px" opacity="0.25"></line><line x1="193.2764983177185" y1="0" x2="193.2764983177185" y2="176.89999961853027" fill="rgb(0, 0, 0)" stroke="rgb(189, 189, 189)" stroke-width="1px" opacity="0.25"></line><line x1="214.75166479746503" y1="0" x2="214.75166479746503" y2="176.89999961853027" fill="rgb(0, 0, 0)" stroke="rgb(189, 189, 189)" stroke-width="1px" opacity="0.25"></line><line x1="236.2268312772115" y1="0" x2="236.2268312772115" y2="176.89999961853027" fill="rgb(0, 0, 0)" stroke="rgb(189, 189, 189)" stroke-width="1px" opacity="0.25"></line><line x1="257.701997756958" y1="0" x2="257.701997756958" y2="176.89999961853027" fill="rgb(0, 0, 0)" stroke="rgb(189, 189, 189)" stroke-width="1px" opacity="0.25"></line></g><g><line x1="0" y1="176.89999961853027" x2="257.701997756958" y2="176.89999961853027" fill="rgb(0, 0, 0)" stroke="rgb(189, 189, 189)" stroke-width="1px" opacity="0.25"></line><line x1="0" y1="157.24444410536023" x2="257.701997756958" y2="157.24444410536023" fill="rgb(0, 0, 0)" stroke="rgb(189, 189, 189)" stroke-width="1px" opacity="0.25"></line><line x1="0" y1="137.58888859219022" x2="257.701997756958" y2="137.58888859219022" fill="rgb(0, 0, 0)" stroke="rgb(189, 189, 189)" stroke-width="1px" opacity="0.25"></line><line x1="0" y1="117.9333330790202" x2="257.701997756958" y2="117.9333330790202" fill="rgb(0, 0, 0)" stroke="rgb(189, 189, 189)" stroke-width="1px" opacity="0.25"></line><line x1="0" y1="98.27777756585016" x2="257.701997756958" y2="98.27777756585016" fill="rgb(0, 0, 0)" stroke="rgb(189, 189, 189)" stroke-width="1px" opacity="0.25"></line><line x1="0" y1="78.62222205268014" x2="257.701997756958" y2="78.62222205268014" fill="rgb(0, 0, 0)" stroke="rgb(189, 189, 189)" stroke-width="1px" opacity="0.25"></line><line x1="0" y1="58.9666665395101" x2="257.701997756958" y2="58.9666665395101" fill="rgb(0, 0, 0)" stroke="rgb(189, 189, 189)" stroke-width="1px" opacity="0.25"></line><line x1="0" y1="39.31111102634008" x2="257.701997756958" y2="39.31111102634008" fill="rgb(0, 0, 0)" stroke="rgb(189, 189, 189)" stroke-width="1px" opacity="0.25"></line><line x1="0" y1="19.65555551317004" x2="257.701997756958" y2="19.65555551317004" fill="rgb(0, 0, 0)" stroke="rgb(189, 189, 189)" stroke-width="1px" opacity="0.25"></line><line x1="0" y1="0" x2="257.701997756958" y2="0" fill="rgb(0, 0, 0)" stroke="rgb(189, 189, 189)" stroke-width="1px" opacity="0.25"></line></g></g></g><g><g><line x1="0" y1="157.24444410536023" x2="257.701997756958" y2="157.24444410536023" fill="rgb(0, 0, 0)" stroke="rgb(153, 153, 153)" stroke-width="1.5px"></line></g></g><g><g><line x1="21.4751664797465" y1="0" x2="21.4751664797465" y2="176.89999961853027" fill="rgb(0, 0, 0)" stroke="rgb(153, 153, 153)" stroke-width="1.5px"></line></g></g><g><g><g><g><g><path style="fill: none;" stroke="rgb(51, 187, 238)" stroke-width="2px" d="M30.0652330716451,-29.685112894401854L32.21274971961975,5.364442435894824L34.3602663675944,37.75295229605729L36.50778301556905,60.746948500265326L38.6552996635437,70.72557126575583L40.80281631151835,81.36782817137671L42.950332959493,82.67277679531838L45.09784960746765,91.34017177447046L47.2453662554423,97.3237387009427L49.392882903416954,101.50434038813984L51.5403995513916,104.95875998855125L53.687916199366256,102.38725289344615L55.835432847340904,108.75925582183866L57.98294949531555,111.52180976628907L60.1304661432902,114.048646419238L62.277982791264854,114.53556742593666L64.4254994392395,119.62424525731353L66.57301608721416,119.86322082985123L68.7205327351888,120.88041813439334L70.86804938316345,113.51657536196275L73.0155660311381,112.47537716948335L75.16308267911276,116.1288392245436L77.3105993270874,113.19929174915998L79.45811597506206,117.72312282676543L81.6056326230367,117.7839122475793L83.75314927101135,114.7204837076245L85.900665918986,115.37882203702513L88.04818256696065,118.12470127831962L90.1956992149353,119.02060271879691L92.34321586290996,117.50259492675121L94.4907325108846,114.12052693456718L96.63824915885925,113.17658201293982L98.78576580683391,116.69419925711742L100.93328245480855,113.61237639228622L103.0807991027832,117.2039670133798L105.22831575075786,124.39237965490251L107.37583239873251,123.27359770097695L109.52334904670715,121.30352231974508L111.67086569468181,122.99094804896474L113.81838234265645,128.22985318764134L115.9658989906311,128.99261407159423L118.11341563860574,131.1795527717515L120.2609322865804,131.99156753500705L122.40844893455505,124.24006811668053L124.55596558252971,129.5382880618361L126.70348223050435,128.687818772559L128.850998878479,123.70380717163383L130.99851552645364,128.7423993888886L133.1460321744283,128.91922383634292L135.29354882240295,133.78153751251708L137.4410654703776,134.42328931123123L139.58858211835224,134.31670521092363L141.7360987663269,136.78010202673548L143.88361541430154,134.45693667742563L146.0311320622762,137.75109076455686L148.17864871025085,140.27067103742863L150.32616535822552,137.89395724531875L152.47368200620016,137.16058435074564L154.6211986541748,138.9581584262272L156.76871530214945,139.58811402955638L158.91623195012411,131.68018368507148L161.06374859809875,132.13832953913024L163.2112652460734,133.85735935217838L165.35878189404806,138.4361698070657L167.5062985420227,128.68173711863824L169.65381518999735,129.5016402444055L171.801331837972,134.7682869864946L173.94884848594666,134.50185429165325L176.0963651339213,134.42307789092877L178.24388178189596,135.56776810692202L180.3913984298706,126.58806831956592L182.53891507784527,128.18788825006234L184.68643172581992,132.24974509256327L186.83394837379456,123.7430985663731L188.9814650217692,126.89261562260737L191.12898166974387,125.42838981949504L193.2764983177185,126.16771565983622L195.42401496569315,134.84854297402003L197.57153161366782,138.88280490362214L199.71904826164246,135.68389205507353L201.8665649096171,139.47632523215907L204.01408155759174,139.79163138034738L206.1615982055664,140.46019575181197L208.30911485354105,135.38254738956442L210.45663150151572,137.36348102838807L212.60414814949036,135.20020403345296L214.75166479746503,130.46749145224132L216.89918144543967,131.53327976314296L219.0466980934143,127.98736894266663L221.19421474138895,125.71526263309697L223.34173138936362,128.83711900117655L225.48924803733826,123.87718147922452L227.6367646853129,125.34562561017195L229.78428133328757,132.1872086017464L231.9317979812622,136.11588516311545L234.07931462923685,140.41080783621354" fill="none"></path></g></g></g></g><g opacity="0.2"><g><g><g><path style="fill: none;" stroke="rgb(51, 187, 238)" stroke-width="2px" d="M25.7701997756958,-25.227166902376727L27.917716423670452,7.860558447530974L30.0652330716451,41.69667648833323L32.21274971961975,53.85059529761403L34.3602663675944,84.06903961224734L36.50778301556905,94.27241570836424L38.6552996635437,85.44210159716832L40.80281631151835,97.17033938503491L42.950332959493,84.61836394325593L45.09784960746765,104.29409666247425L47.2453662554423,106.27955170646331L49.392882903416954,107.76705268501968L51.5403995513916,110.13632884860203L53.687916199366256,98.53180587682424L55.835432847340904,118.31456379633869L57.98294949531555,115.66493927081747L60.1304661432902,117.83851646052995L62.277982791264854,115.26590442947591L64.4254994392395,127.25698292919286L66.57301608721416,120.22167632506472L68.7205327351888,122.40619400842017L70.86804938316345,102.47089843505478L73.0155660311381,110.91358728115539L75.16308267911276,121.60901672678719L77.3105993270874,108.80497803199363L79.45811597506206,124.5088624980273L81.6056326230367,117.87509632280445L83.75314927101135,110.12534259080266L85.900665918986,116.36632931281397L88.04818256696065,122.24351959392331L90.1956992149353,120.36445477256015L92.34321586290996,115.22558334741449L94.4907325108846,109.0474250916415L96.63824915885925,111.76066465483945L98.78576580683391,121.97062506896054L100.93328245480855,108.98964212364794L103.0807991027832,122.59135292501574L105.22831575075786,135.1749985931638L107.37583239873251,121.59542477233192L109.52334904670715,118.34840925026741L111.67086569468181,125.52208664157622L113.81838234265645,136.08821089338718L115.9658989906311,130.1367553973254L118.11341563860574,134.45996082164643L120.2609322865804,133.20958967981446L122.40844893455505,112.61281898962578L124.55596558252971,137.48561797939107L126.70348223050435,127.41211483866056L128.850998878479,116.22778977030646L130.99851552645364,136.3002877147341L133.1460321744283,129.18446050752357L135.29354882240295,141.07500802676563L137.4410654703776,135.3859170093015L139.58858211835224,134.1568290604623L141.7360987663269,140.4751972504519L143.88361541430154,130.9721886534616L146.0311320622762,142.6923218952531L148.17864871025085,144.05004144673592L150.32616535822552,134.32888655715414L152.47368200620016,136.06052500888595L154.6211986541748,141.6545195394495L156.76871530214945,140.53304743455018L158.91623195012411,119.8182881683442L161.06374859809875,132.8255483202184L163.2112652460734,136.4359040717506L165.35878189404806,145.30438548939665L167.5062985420227,114.05008808599709L169.65381518999735,130.73149493305638L171.801331837972,142.66825709962822L173.94884848594666,134.10220524939126L176.0963651339213,134.3049132898421L178.24388178189596,137.28480343091192L180.3913984298706,113.11851863853173L182.53891507784527,130.58761814580703L184.68643172581992,138.3425303563147L186.83394837379456,110.98312877708784L188.9814650217692,131.6168912069587L191.12898166974387,123.23205111482653L193.2764983177185,127.27670442034795L195.42401496569315,147.86978394529575L197.57153161366782,144.93419779802537L199.71904826164246,130.8855227822506L201.8665649096171,145.16497499778743L204.01408155759174,140.2645906026298L206.1615982055664,141.4630423090089L208.30911485354105,127.76607484619305L210.45663150151572,140.33488148662357L212.60414814949036,131.95528854105032L214.75166479746503,123.36842258042385L216.89918144543967,133.1319622294954L219.0466980934143,122.6685027119522L221.19421474138895,122.30710316874247L223.34173138936362,133.51990355329596L225.48924803733826,116.43727519629641L227.6367646853129,127.54829180659311L229.78428133328757,142.44958308910807L231.9317979812622,142.00890000516907L234.07931462923685,146.85319184586066" fill="none"></path></g></g></g></g></g></g><g transform="translate(72, 176)" clip-path="url(#clip_1)"><clipPath id="clip_1"><rect width="257" height="23"></rect></clipPath><g><g><line x1="0" y1="0" x2="0" y2="5" style="visibility: inherit;" fill="rgb(0, 0, 0)" stroke="rgb(204, 204, 204)" stroke-width="1px"></line><line x1="21.4751664797465" y1="0" x2="21.4751664797465" y2="5" style="visibility: inherit;" fill="rgb(0, 0, 0)" stroke="rgb(204, 204, 204)" stroke-width="1px"></line><line x1="42.950332959493" y1="0" x2="42.950332959493" y2="5" style="visibility: inherit;" fill="rgb(0, 0, 0)" stroke="rgb(204, 204, 204)" stroke-width="1px"></line><line x1="64.4254994392395" y1="0" x2="64.4254994392395" y2="5" style="visibility: inherit;" fill="rgb(0, 0, 0)" stroke="rgb(204, 204, 204)" stroke-width="1px"></line><line x1="85.900665918986" y1="0" x2="85.900665918986" y2="5" style="visibility: inherit;" fill="rgb(0, 0, 0)" stroke="rgb(204, 204, 204)" stroke-width="1px"></line><line x1="107.37583239873251" y1="0" x2="107.37583239873251" y2="5" style="visibility: inherit;" fill="rgb(0, 0, 0)" stroke="rgb(204, 204, 204)" stroke-width="1px"></line><line x1="128.850998878479" y1="0" x2="128.850998878479" y2="5" style="visibility: inherit;" fill="rgb(0, 0, 0)" stroke="rgb(204, 204, 204)" stroke-width="1px"></line><line x1="150.32616535822552" y1="0" x2="150.32616535822552" y2="5" style="visibility: inherit;" fill="rgb(0, 0, 0)" stroke="rgb(204, 204, 204)" stroke-width="1px"></line><line x1="171.801331837972" y1="0" x2="171.801331837972" y2="5" style="visibility: inherit;" fill="rgb(0, 0, 0)" stroke="rgb(204, 204, 204)" stroke-width="1px"></line><line x1="193.2764983177185" y1="0" x2="193.2764983177185" y2="5" style="visibility: inherit;" fill="rgb(0, 0, 0)" stroke="rgb(204, 204, 204)" stroke-width="1px"></line><line x1="214.75166479746503" y1="0" x2="214.75166479746503" y2="5" style="visibility: inherit;" fill="rgb(0, 0, 0)" stroke="rgb(204, 204, 204)" stroke-width="1px"></line><line x1="236.2268312772115" y1="0" x2="236.2268312772115" y2="5" style="visibility: inherit;" fill="rgb(0, 0, 0)" stroke="rgb(204, 204, 204)" stroke-width="1px"></line><line x1="257.701997756958" y1="0" x2="257.701997756958" y2="5" style="visibility: inherit;" fill="rgb(0, 0, 0)" stroke="rgb(204, 204, 204)" stroke-width="1px"></line></g><g transform="translate(0, 8)"><text style="text-anchor: middle; visibility: hidden; font-family: Roboto, sans-serif; font-size: 12px; font-weight: 200;" x="0" y="0" dx="0em" dy="0.95em" fill="rgb(255, 255, 255)" stroke="none" stroke-width="1px">-10</text><text style="text-anchor: middle; visibility: inherit; font-family: Roboto, sans-serif; font-size: 12px; font-weight: 200;" x="21.4751664797465" y="0" dx="0em" dy="0.95em" fill="rgb(255, 255, 255)" stroke="none" stroke-width="1px">0</text><text style="text-anchor: middle; visibility: hidden; font-family: Roboto, sans-serif; font-size: 12px; font-weight: 200;" x="42.950332959493" y="0" dx="0em" dy="0.95em" fill="rgb(255, 255, 255)" stroke="none" stroke-width="1px">10</text><text style="text-anchor: middle; visibility: inherit; font-family: Roboto, sans-serif; font-size: 12px; font-weight: 200;" x="64.4254994392395" y="0" dx="0em" dy="0.95em" fill="rgb(255, 255, 255)" stroke="none" stroke-width="1px">20</text><text style="text-anchor: middle; visibility: hidden; font-family: Roboto, sans-serif; font-size: 12px; font-weight: 200;" x="85.900665918986" y="0" dx="0em" dy="0.95em" fill="rgb(255, 255, 255)" stroke="none" stroke-width="1px">30</text><text style="text-anchor: middle; visibility: inherit; font-family: Roboto, sans-serif; font-size: 12px; font-weight: 200;" x="107.37583239873251" y="0" dx="0em" dy="0.95em" fill="rgb(255, 255, 255)" stroke="none" stroke-width="1px">40</text><text style="text-anchor: middle; visibility: hidden; font-family: Roboto, sans-serif; font-size: 12px; font-weight: 200;" x="128.850998878479" y="0" dx="0em" dy="0.95em" fill="rgb(255, 255, 255)" stroke="none" stroke-width="1px">50</text><text style="text-anchor: middle; visibility: inherit; font-family: Roboto, sans-serif; font-size: 12px; font-weight: 200;" x="150.32616535822552" y="0" dx="0em" dy="0.95em" fill="rgb(255, 255, 255)" stroke="none" stroke-width="1px">60</text><text style="text-anchor: middle; visibility: hidden; font-family: Roboto, sans-serif; font-size: 12px; font-weight: 200;" x="171.801331837972" y="0" dx="0em" dy="0.95em" fill="rgb(255, 255, 255)" stroke="none" stroke-width="1px">70</text><text style="text-anchor: middle; visibility: inherit; font-family: Roboto, sans-serif; font-size: 12px; font-weight: 200;" x="193.2764983177185" y="0" dx="0em" dy="0.95em" fill="rgb(255, 255, 255)" stroke="none" stroke-width="1px">80</text><text style="text-anchor: middle; visibility: hidden; font-family: Roboto, sans-serif; font-size: 12px; font-weight: 200;" x="214.75166479746503" y="0" dx="0em" dy="0.95em" fill="rgb(255, 255, 255)" stroke="none" stroke-width="1px">90</text><text style="text-anchor: middle; visibility: inherit; font-family: Roboto, sans-serif; font-size: 12px; font-weight: 200;" x="236.2268312772115" y="0" dx="0em" dy="0.95em" fill="rgb(255, 255, 255)" stroke="none" stroke-width="1px">100</text><text style="text-anchor: middle; visibility: hidden; font-family: Roboto, sans-serif; font-size: 12px; font-weight: 200;" x="257.701997756958" y="0" dx="0em" dy="0.95em" fill="rgb(255, 255, 255)" stroke="none" stroke-width="1px">110</text></g><line x1="0" y1="0" x2="257.701997756958" y2="0" fill="rgb(0, 0, 0)" stroke="rgb(204, 204, 204)" stroke-width="1px"></line></g></g></g></g></svg>